<svg width="32" height="29" viewBox="0 0 32 29" fill="none" xmlns="http://www.w3.org/2000/svg">
<path opacity="0.4" d="M28.1139 5.58119H23.2684L20.8456 1.94702H11.1545L8.73171 5.58119H3.88616C3.2436 5.58119 2.62735 5.83644 2.17299 6.2908C1.71863 6.74516 1.46338 7.3614 1.46338 8.00396V24.9634C1.46338 25.606 1.71863 26.2222 2.17299 26.6766C2.62735 27.1309 3.2436 27.3862 3.88616 27.3862H28.1139C28.7565 27.3862 29.3727 27.1309 29.8271 26.6766C30.2814 26.2222 30.5367 25.606 30.5367 24.9634V8.00396C30.5367 7.3614 30.2814 6.74516 29.8271 6.2908C29.3727 5.83644 28.7565 5.58119 28.1139 5.58119ZM16 21.3292C14.9219 21.3292 13.8679 21.0095 12.9715 20.4105C12.075 19.8115 11.3763 18.9602 10.9637 17.9641C10.5511 16.968 10.4432 15.8719 10.6535 14.8145C10.8639 13.7571 11.3831 12.7857 12.1454 12.0234C12.9078 11.261 13.8791 10.7418 14.9366 10.5315C15.994 10.3211 17.0901 10.4291 18.0861 10.8417C19.0822 11.2543 19.9336 11.953 20.5326 12.8494C21.1316 13.7459 21.4513 14.7998 21.4513 15.878C21.4513 17.3237 20.877 18.7103 19.8547 19.7326C18.8323 20.7549 17.4458 21.3292 16 21.3292Z" fill="#C8D4F2"/>
<path d="M28.1139 4.37H23.9164L21.8525 1.27491C21.7419 1.10918 21.5922 0.973276 21.4166 0.879246C21.2409 0.785216 21.0448 0.735959 20.8456 0.73584H11.1544C10.9552 0.735959 10.7591 0.785216 10.5834 0.879246C10.4078 0.973276 10.2581 1.10918 10.1475 1.27491L8.08206 4.37H3.88612C2.92228 4.37 1.99791 4.75289 1.31638 5.43443C0.634837 6.11597 0.251953 7.04033 0.251953 8.00417V24.9636C0.251953 25.9274 0.634837 26.8518 1.31638 27.5333C1.99791 28.2149 2.92228 28.5978 3.88612 28.5978H28.1139C29.0777 28.5978 30.0021 28.2149 30.6836 27.5333C31.3652 26.8518 31.748 25.9274 31.748 24.9636V8.00417C31.748 7.04033 31.3652 6.11597 30.6836 5.43443C30.0021 4.75289 29.0777 4.37 28.1139 4.37ZM29.3253 24.9636C29.3253 25.2849 29.1976 25.593 28.9705 25.8202C28.7433 26.0474 28.4352 26.175 28.1139 26.175H3.88612C3.56484 26.175 3.25672 26.0474 3.02954 25.8202C2.80236 25.593 2.67473 25.2849 2.67473 24.9636V8.00417C2.67473 7.68289 2.80236 7.37477 3.02954 7.14759C3.25672 6.92041 3.56484 6.79278 3.88612 6.79278H8.73167C8.93116 6.79291 9.12759 6.74377 9.30352 6.64973C9.47945 6.55569 9.62944 6.41966 9.74015 6.25371L11.8025 3.15862H20.1959L22.2598 6.25371C22.3706 6.41966 22.5205 6.55569 22.6965 6.64973C22.8724 6.74377 23.0688 6.79291 23.2683 6.79278H28.1139C28.4352 6.79278 28.7433 6.92041 28.9705 7.14759C29.1976 7.37477 29.3253 7.68289 29.3253 8.00417V24.9636ZM16 9.21556C14.6823 9.21556 13.3941 9.60631 12.2984 10.3384C11.2028 11.0705 10.3488 12.1111 9.84453 13.3285C9.34025 14.546 9.20831 15.8856 9.46539 17.178C9.72247 18.4704 10.357 19.6576 11.2888 20.5894C12.2206 21.5212 13.4078 22.1557 14.7002 22.4128C15.9926 22.6699 17.3322 22.5379 18.5497 22.0337C19.7671 21.5294 20.8077 20.6754 21.5398 19.5798C22.2719 18.4841 22.6626 17.1959 22.6626 15.8782C22.6606 14.1118 21.958 12.4183 20.709 11.1692C19.4599 9.92016 17.7664 9.21756 16 9.21556ZM16 20.1181C15.1614 20.1181 14.3417 19.8694 13.6445 19.4035C12.9472 18.9376 12.4038 18.2755 12.0829 17.5007C11.762 16.726 11.678 15.8735 11.8416 15.051C12.0052 14.2286 12.409 13.4731 13.002 12.8802C13.5949 12.2872 14.3504 11.8834 15.1728 11.7198C15.9953 11.5562 16.8478 11.6402 17.6225 11.9611C18.3973 12.282 19.0594 12.8254 19.5253 13.5227C19.9912 14.2199 20.2399 15.0396 20.2399 15.8782C20.2399 17.0027 19.7932 18.0811 18.998 18.8762C18.2029 19.6714 17.1245 20.1181 16 20.1181Z" fill="white"/>
</svg>
