<svg width="253" height="216" viewBox="0 0 253 216" fill="none" xmlns="http://www.w3.org/2000/svg">
<g id="fa6-solid:id-card">
<g id="Group 2237">
<path id="Vector" d="M0.5 46.1252H223.5C223.5 32.4741 212.389 21.3752 198.722 21.3752H25.2778C11.6113 21.3752 0.5 32.4741 0.5 46.1252ZM0.5 58.5002V169.875C0.5 183.526 11.6113 194.625 25.2778 194.625H198.722C212.389 194.625 223.5 183.526 223.5 169.875V58.5002H0.5ZM25.2778 165.737C25.2778 154.329 34.5307 145.125 45.913 145.125H91.3648C102.786 145.125 112 154.368 112 165.737C112 168.019 110.142 169.875 107.857 169.875H29.4203C27.1361 169.875 25.2778 168.019 25.2778 165.737ZM68.6389 83.2502C75.2104 83.2502 81.5127 85.8578 86.1594 90.4994C90.8062 95.1409 93.4167 101.436 93.4167 108C93.4167 114.564 90.8062 120.86 86.1594 125.501C81.5127 130.143 75.2104 132.75 68.6389 132.75C62.0674 132.75 55.7651 130.143 51.1184 125.501C46.4716 120.86 43.8611 114.564 43.8611 108C43.8611 101.436 46.4716 95.1409 51.1184 90.4994C55.7651 85.8578 62.0674 83.2502 68.6389 83.2502ZM136.778 89.4377C136.778 86.0346 139.565 83.2502 142.972 83.2502H192.528C195.935 83.2502 198.722 86.0346 198.722 89.4377C198.722 92.8409 195.935 95.6252 192.528 95.6252H142.972C139.565 95.6252 136.778 92.8409 136.778 89.4377ZM136.778 114.188C136.778 110.785 139.565 108 142.972 108H192.528C195.935 108 198.722 110.785 198.722 114.188C198.722 117.591 195.935 120.375 192.528 120.375H142.972C139.565 120.375 136.778 117.591 136.778 114.188ZM136.778 138.938C136.778 135.535 139.565 132.75 142.972 132.75H192.528C195.935 132.75 198.722 135.535 198.722 138.938C198.722 142.341 195.935 145.125 192.528 145.125H142.972C139.565 145.125 136.778 142.341 136.778 138.938Z" fill="#FB5E54" fill-opacity="0.5"/>
<g id="Vector_2">
<path d="M220.5 52.5C221.397 52.5 222.15 52.196 222.758 51.588C223.366 50.98 223.669 50.2284 223.667 49.3333C223.665 48.4382 223.361 47.6867 222.755 47.0787C222.149 46.4707 221.397 46.1667 220.5 46.1667C219.603 46.1667 218.851 46.4707 218.245 47.0787C217.639 47.6867 217.335 48.4382 217.333 49.3333C217.331 50.2284 217.635 50.9811 218.245 51.5912C218.855 52.2013 219.607 52.5042 220.5 52.5ZM217.333 39.8333H223.667V20.8333H217.333V39.8333ZM220.5 68.3333C216.119 68.3333 212.003 67.5016 208.15 65.838C204.297 64.1744 200.946 61.9187 198.096 59.0708C195.246 56.2229 192.99 52.8716 191.329 49.0167C189.667 45.1618 188.835 41.0451 188.833 36.6667C188.831 32.2882 189.663 28.1716 191.329 24.3167C192.994 20.4618 195.25 17.1104 198.096 14.2625C200.942 11.4146 204.293 9.15889 208.15 7.49533C212.007 5.83178 216.124 5 220.5 5C224.876 5 228.993 5.83178 232.85 7.49533C236.707 9.15889 240.058 11.4146 242.904 14.2625C245.75 17.1104 248.007 20.4618 249.674 24.3167C251.342 28.1716 252.173 32.2882 252.167 36.6667C252.16 41.0451 251.329 45.1618 249.671 49.0167C248.014 52.8716 245.758 56.2229 242.904 59.0708C240.05 61.9187 236.699 64.1755 232.85 65.8412C229.001 67.5068 224.885 68.3376 220.5 68.3333Z" fill="#FA6259"/>
<path d="M217.333 39.8333H223.667V20.8333H217.333V39.8333Z" fill="white"/>
</g>
</g>
</g>
</svg>
