<svg width="28" height="26" viewBox="0 0 28 26" fill="none" xmlns="http://www.w3.org/2000/svg">
<g id="Group 2236">
<path id="Vector" d="M14.003 2.75195L2.82655 13.9194H5.72639V23.7577H10.3752V16.8706C10.3752 16.203 10.9159 15.6623 11.5835 15.6623H16.4165C17.0841 15.6623 17.6248 16.203 17.6248 16.8706V23.7577H22.2736V13.9194H25.1765L14.7008 3.44973L14.003 2.75195ZM27.1278 15.5264C26.9466 15.7076 26.7321 15.8526 26.4995 15.9462C26.7321 15.8496 26.9466 15.7076 27.1278 15.5264ZM0.334498 14.4782C0.485531 15.3934 1.28299 16.0942 2.24054 16.0942H2.26773C1.30413 16.0942 0.488552 15.3995 0.334498 14.4782ZM0.310333 14.0825C0.313353 13.9888 0.325436 13.8982 0.340539 13.8076C0.322415 13.8952 0.313353 13.9888 0.310333 14.0825Z" fill="#5F96E9"/>
<path id="Vector_2" d="M27.2609 12.9433C27.2609 12.9403 27.2579 12.9403 27.2579 12.9373L27.2035 12.8738C27.2005 12.8708 27.1975 12.8648 27.1914 12.8617C27.1703 12.8376 27.1461 12.8134 27.125 12.7892L15.4531 1.12645L14.6707 0.344094C14.4925 0.167012 14.2514 0.067627 14.0002 0.067627C13.7489 0.067627 13.5078 0.167012 13.3296 0.344094L0.875351 12.7923C0.650357 13.0161 0.48431 13.2921 0.392044 13.5958L0.37392 13.6592L0.364858 13.6924L0.355796 13.7287C0.349755 13.7498 0.346734 13.771 0.343713 13.7921C0.343713 13.7951 0.343713 13.8012 0.340693 13.8042C0.322569 13.8948 0.313507 13.9854 0.310486 14.0791V14.1788C0.310486 14.1939 0.310486 14.209 0.313507 14.2241C0.313507 14.2392 0.313507 14.2512 0.316527 14.2664C0.316527 14.2815 0.319548 14.2966 0.319548 14.3117C0.319548 14.3298 0.322569 14.3479 0.325589 14.366C0.325589 14.3751 0.32861 14.3842 0.32861 14.3932L0.337672 14.4687V14.4718C0.491726 15.3931 1.31033 16.0878 2.2709 16.0878H3.55468V25.9322H24.4486V16.0939H25.7596C26.0194 16.0939 26.2701 16.0425 26.4997 15.9458C26.7292 15.8492 26.9437 15.7072 27.128 15.526C27.3079 15.3466 27.4505 15.1333 27.5475 14.8984C27.6445 14.6635 27.6939 14.4117 27.6928 14.1576C27.6928 13.7136 27.5418 13.2877 27.2609 12.9433ZM15.6917 23.7573H12.3086V17.5951H15.6917V23.7573ZM22.2738 13.919V23.7573H17.625V16.8702C17.625 16.2026 17.0843 15.6619 16.4167 15.6619H11.5836C10.9161 15.6619 10.3754 16.2026 10.3754 16.8702V23.7573H5.72654V13.919H2.8267L14.0032 2.75157L14.7009 3.44934L25.1766 13.919H22.2738Z" fill="white"/>
</g>
</svg>
