<svg width="25" height="24" viewBox="0 0 25 24" fill="none" xmlns="http://www.w3.org/2000/svg">
<path id="Vector" fill-rule="evenodd" clip-rule="evenodd" d="M11.4799 0.0434661C13.5511 -0.133288 15.6327 0.230987 17.5208 1.10061C19.4089 1.97023 21.0387 3.31537 22.2506 5.00427V2.62513C22.2506 2.32674 22.3692 2.04057 22.5801 1.82958C22.7911 1.61859 23.0773 1.50006 23.3757 1.50006C23.6741 1.50006 23.9602 1.61859 24.1712 1.82958C24.3822 2.04057 24.5008 2.32674 24.5008 2.62513V9.00052H18.1254C17.827 9.00052 17.5408 8.88199 17.3298 8.671C17.1188 8.46001 17.0003 8.17384 17.0003 7.87545C17.0003 7.57707 17.1188 7.2909 17.3298 7.07991C17.5408 6.86892 17.827 6.75038 18.1254 6.75038H20.716C19.6901 5.14514 18.2165 3.87558 16.4771 3.09854C14.7377 2.32149 12.8088 2.071 10.9286 2.37801C9.04848 2.68501 7.29944 3.53606 5.89757 4.82603C4.4957 6.116 3.50242 7.78837 3.04043 9.63656C3.00635 9.78174 2.94375 9.9187 2.85626 10.0395C2.76878 10.1602 2.65816 10.2624 2.53083 10.3401C2.40351 10.4177 2.26202 10.4692 2.11459 10.4917C1.96717 10.5142 1.81675 10.5071 1.67208 10.4709C1.52741 10.4347 1.39138 10.3701 1.2719 10.2809C1.15241 10.1916 1.05186 10.0795 0.976094 9.9511C0.900325 9.82266 0.850846 9.68043 0.830536 9.53269C0.810227 9.38496 0.819491 9.23465 0.85779 9.09053C1.46464 6.66402 2.81451 4.48776 4.71872 2.86596C6.62292 1.24416 8.98628 0.257875 11.4784 0.0449662L11.4799 0.0434661ZM6.37963 22.3228C7.98771 23.276 9.79622 23.8403 11.661 23.9707C13.5257 24.1012 15.3952 23.7942 17.1203 23.0743C18.8455 22.3544 20.3786 21.2414 21.5974 19.8241C22.8163 18.4068 23.6872 16.7244 24.1407 14.9109C24.2083 14.6232 24.1599 14.3204 24.006 14.0681C23.8522 13.8157 23.6052 13.6341 23.3185 13.5624C23.0318 13.4906 22.7284 13.5346 22.4738 13.6848C22.2192 13.8349 22.034 14.0792 21.9581 14.3649C21.4959 16.2127 20.5025 17.8846 19.1008 19.1742C17.699 20.4639 15.9503 21.3147 14.0704 21.6217C12.1906 21.9287 10.262 21.6783 8.52283 20.9016C6.78365 20.1249 5.31005 18.8558 4.284 17.251H6.87466C7.17305 17.251 7.45922 17.1325 7.67021 16.9215C7.8812 16.7105 7.99973 16.4244 7.99973 16.126C7.99973 15.8276 7.8812 15.5414 7.67021 15.3304C7.45922 15.1194 7.17305 15.0009 6.87466 15.0009H0.499268V21.3763C0.499268 21.6747 0.617801 21.9608 0.828793 22.1718C1.03978 22.3828 1.32595 22.5014 1.62434 22.5014C1.92272 22.5014 2.20889 22.3828 2.41988 22.1718C2.63087 21.9608 2.74941 21.6747 2.74941 21.3763V18.9971C3.71664 20.3447 4.95272 21.4771 6.37963 22.3228Z" fill="white"/>
</svg>
