<svg width="39" height="38" viewBox="0 0 39 38" fill="none" xmlns="http://www.w3.org/2000/svg">
<g id="ic:round-upload">
<path id="Vector" d="M16.332 25.3356H22.668C23.5392 25.3356 24.252 24.6228 24.252 23.7516V15.8316H26.7706C28.1803 15.8316 28.8931 14.1209 27.8952 13.123L20.6247 5.85239C20.4781 5.70555 20.3041 5.58905 20.1124 5.50956C19.9208 5.43007 19.7154 5.38916 19.5079 5.38916C19.3005 5.38916 19.0951 5.43007 18.9034 5.50956C18.7118 5.58905 18.5378 5.70555 18.3912 5.85239L11.1207 13.123C10.1227 14.1209 10.8197 15.8316 12.2295 15.8316H14.748V23.7516C14.748 24.6228 15.4608 25.3356 16.332 25.3356ZM9.99602 28.5036H29.004C29.8752 28.5036 30.588 29.2164 30.588 30.0876C30.588 30.9588 29.8752 31.6716 29.004 31.6716H9.99602C9.12482 31.6716 8.41202 30.9588 8.41202 30.0876C8.41202 29.2164 9.12482 28.5036 9.99602 28.5036Z" fill="white"/>
</g>
</svg>
